<?xml version="1.0" standalone="no"?>
<!DOCTYPE svg PUBLIC "-//W3C//DTD SVG 20010904//EN"
 "http://www.w3.org/TR/2001/REC-SVG-20010904/DTD/svg10.dtd">
<svg version="1.0" xmlns="http://www.w3.org/2000/svg"
 width="100.000pt" height="100.0pt" viewBox="0 0 100.000000 100.0"
 preserveAspectRatio="xMidYMid meet">

<g transform="translate(0.000000,100.000000) scale(0.050000,-0.050000)"
fill="#fcfcfc" stroke="none">
<!-- telhadinho -->
<path d="M610 1455 l-385 -194 775 0 775 0 -385 194 c-212 107 -387 194 -390
194 -3 0 -178 -87 -390 -194z" fill="#FFFF00" />
<path d="M554 1197 c-2 -7 -3 -58 -2 -113 l3 -99 38 -3 37 -3 0 58 c1 44 3 54
11 41 5 -10 19 -18 30 -18 11 0 23 8 27 18 4 11 9 -2 12 -38 l5 -55 38 -3 37
-3 0 115 0 116 -40 0 c-34 0 -42 -4 -55 -30 -9 -16 -19 -30 -24 -30 -5 0 -14
14 -21 30 -11 26 -18 30 -52 30 -23 0 -41 -5 -44 -13z"/>
<path d="M832 1098 l3 -113 88 -3 87 -3 0 31 c0 29 -1 30 -50 30 -38 0 -50 4
-50 15 0 10 11 15 35 15 32 0 35 2 35 30 0 28 -3 30 -35 30 -19 0 -35 5 -35
10 0 6 23 10 50 10 49 0 50 1 50 30 l0 30 -90 0 -91 0 3 -112z"/>
<path d="M1042 1183 c2 -20 9 -29 26 -31 20 -3 22 -9 22 -58 0 -51 -1 -54 -25
-54 -21 0 -25 -5 -25 -30 l0 -31 83 3 c80 3 82 4 82 28 0 18 -6 26 -22 28 -21
3 -23 9 -23 57 0 48 2 54 23 57 16 2 23 11 25 31 l3 27 -86 0 -86 0 3 -27z"/>
<path d="M1261 1149 c-12 -35 -21 -87 -21 -116 l0 -53 35 0 c31 0 35 3 35 25
0 21 5 25 30 25 26 0 30 -4 30 -26 0 -23 3 -25 38 -22 36 3 37 4 39 48 2 27
-6 71 -20 110 l-23 65 -61 3 -61 3 -21 -62z m97 -32 c3 -22 -1 -27 -17 -27
-21 0 -26 15 -15 45 9 23 29 13 32 -18z"/>
<path d="M405 934 c-92 -23 -105 -49 -105 -210 0 -162 15 -189 117 -209 54
-11 123 5 157 36 l31 27 0 140 c0 150 -8 181 -51 201 -29 13 -120 22 -149 15z
m80 -209 c0 -98 0 -100 -24 -103 -38 -6 -51 22 -51 108 0 83 10 103 50 98 25
-3 25 -4 25 -103z"/>
<path d="M54 914 c-46 -23 -54 -50 -54 -194 0 -129 0 -130 29 -162 28 -31 31
-32 124 -36 96 -4 96 -4 102 21 4 13 5 38 3 53 -3 28 -5 29 -73 34 l-70 5 0
90 0 90 70 5 70 5 0 50 0 50 -85 2 c-61 2 -94 -1 -116 -13z"/>
<path d="M670 725 l0 -206 138 3 137 3 3 108 3 108 -53 -3 -53 -3 -3 -52 c-3
-51 -4 -53 -32 -53 l-29 0 -3 148 -3 147 -52 3 -53 3 0 -206z"/>
<path d="M1006 915 c-8 -21 -8 -358 0 -379 4 -12 20 -16 54 -16 56 0 60 6 60
91 l0 59 40 0 40 0 0 -76 0 -75 53 3 52 3 0 200 0 200 -52 3 -53 3 0 -70 0
-71 -40 0 -39 0 -3 68 -3 67 -51 3 c-40 2 -53 -1 -58 -13z"/>
<path d="M1377 924 c-9 -9 -9 -366 -1 -388 5 -13 26 -16 130 -16 122 0 124 0
130 24 3 13 4 37 2 52 -3 29 -3 29 -80 32 -75 3 -78 4 -78 27 0 22 4 24 58 27
l57 3 0 45 0 45 -57 3 c-50 3 -58 6 -58 22 0 18 7 20 75 20 70 0 75 1 81 24 3
13 4 37 2 52 l-3 29 -126 3 c-69 1 -128 -1 -132 -4z"/>
<path d="M1694 917 c-2 -7 -3 -98 -2 -202 l3 -190 53 -3 52 -3 0 65 0 66 45 0
44 0 3 -62 3 -63 50 0 50 0 3 88 c3 82 1 89 -23 113 -20 20 -23 29 -15 44 13
25 13 83 -1 113 -6 14 -22 30 -36 36 -35 16 -222 15 -229 -2z m164 -124 c2
-24 -1 -33 -17 -38 -30 -9 -41 2 -41 41 0 33 2 35 28 32 22 -2 28 -8 30 -35z"/>
<!-- retangulo de baixo -->
<rect x="20" y="320" width="10000" height="150" fill="orange" />
</g>
</svg>
